# xmcd CD database file
#
# Track frame offsets:
#	150
#	27527
#	66747
#	97422
#	122700
#	153767
#	174627
#	194402
#	218922
#	243112
#
# Disc length: 3528 seconds
#
# Revision: 0
# Processed by: cddbd v1.5.1PL0 Copyright (c) Steve Scherf et al.
# Submitted via: CDex 1.51
#
DISCID=950dc60a
DTITLE=宮本文昭 - ニペンシィ
DYEAR=1900
DGENRE=New Age
TTITLE0=ラヴ・ダンス
TTITLE1=モデラート・ブリーズ
TTITLE2=ファンタジー・オヴ・セルジュ
TTITLE3=パラヴラス
TTITLE4=リトル・ビビス・ドリーム
TTITLE5=ブルー・レジェンド
TTITLE6=メディテイション
TTITLE7=ウェイヴ
TTITLE8=イミテーション・シンデレラ
TTITLE9=コバキラ
EXTD=
EXTT0=
EXTT1=
EXTT2=
EXTT3=
EXTT4=
EXTT5=
EXTT6=
EXTT7=
EXTT8=
EXTT9=
PLAYORDER=
